<svg width="16" height="13" viewBox="0 0 16 13" fill="none" xmlns="http://www.w3.org/2000/svg">
<path d="M1.43556 12.5C1.02667 12.5 0.685333 12.368 0.411556 12.104C0.137185 11.8394 0 11.51 0 11.1157V1.88429C0 1.49 0.137185 1.16086 0.411556 0.896857C0.685333 0.632286 1.02667 0.5 1.43556 0.5H14.5644C14.9733 0.5 15.3147 0.632286 15.5884 0.896857C15.8628 1.16086 16 1.49 16 1.88429V11.1157C16 11.51 15.8631 11.8391 15.5893 12.1031C15.315 12.3677 14.9733 12.5 14.5644 12.5H1.43556ZM8 6.59857L0.888889 2.11571V11.1157C0.888889 11.2694 0.940148 11.3957 1.04267 11.4946C1.14519 11.5934 1.27615 11.6429 1.43556 11.6429H14.5644C14.7239 11.6429 14.8548 11.5934 14.9573 11.4946C15.0599 11.3957 15.1111 11.2694 15.1111 11.1157V2.11571L8 6.59857ZM8 5.64286L14.8373 1.35714H1.16267L8 5.64286ZM0.888889 2.11571V1.35714V11.1157C0.888889 11.2694 0.940148 11.3957 1.04267 11.4946C1.14519 11.5934 1.27615 11.6429 1.43556 11.6429H0.888889V2.11571Z" fill="#7F7F7F"/>
</svg>
