<svg width="18" height="16" viewBox="0 0 18 16" fill="none" xmlns="http://www.w3.org/2000/svg">
<path d="M7.71794 2.55058C7.90569 2.8131 8.20861 2.96887 8.53136 2.96885C8.85411 2.96884 9.15702 2.81305 9.34475 2.55051C9.6296 2.15217 10.1309 1.7564 10.7467 1.45705C11.3608 1.1585 11.9927 1.00274 12.4743 1.00009C13.5442 0.994201 14.403 1.27669 14.9955 1.8575C15.5834 2.43388 16.0625 3.45481 16.0625 5.2501C16.0625 5.90974 15.686 6.80151 14.9188 7.86383C14.174 8.89511 13.1612 9.95135 12.1186 10.9137C11.0807 11.8717 10.039 12.7134 9.25449 13.3168C8.97613 13.531 8.73107 13.7144 8.53119 13.8616C8.33131 13.7144 8.08625 13.531 7.8079 13.3169C7.02342 12.7134 5.98168 11.8717 4.94387 10.9137C3.9013 9.95135 2.88849 8.89512 2.14368 7.86383C1.37646 6.80152 1 5.90974 1 5.2501C1 3.45516 1.47889 2.43874 2.06613 1.86442C2.6591 1.28451 3.51992 1.0012 4.59477 1.0001C5.06346 0.999625 5.69262 1.15338 6.31014 1.45372C6.92869 1.75456 7.43335 2.15267 7.71794 2.55058Z" stroke="#F44336" stroke-width="2" stroke-linejoin="round"/>
</svg>
