<svg width="51" height="68" viewBox="0 0 51 68" fill="none" xmlns="http://www.w3.org/2000/svg">
<rect x="0.5" width="50" height="50" rx="10" fill="#FEE502"/>
<ellipse cx="25.5002" cy="22.1154" rx="14.4231" ry="11.5385" fill="black"/>
<path d="M16.1575 37.9328L17.2004 30.1683L22.6693 33.5773L16.1575 37.9328Z" fill="black"/>
<path d="M9.4375 65V56.5156H10.4922V60.7109H10.5977L14.3711 56.5156H15.7539L12.2031 60.3477L15.7539 65H14.4648L11.5469 61.0742L10.4922 62.2695V65H9.4375ZM16.457 63.1953C16.457 61.7305 17.7461 61.4023 18.8477 61.3203C19.252 61.291 20.2832 61.2383 20.5703 61.2266V60.7109C20.5703 59.9023 20.0898 59.4336 19.1289 59.4336C18.3203 59.4336 17.8398 59.8086 17.6992 60.2891H16.6445C16.7734 59.2695 17.7695 58.5547 19.1758 58.5547C20.0078 58.5547 21.5664 58.8008 21.5664 60.8047V65H20.5703V64.1328H20.5234C20.3125 64.5664 19.7266 65.1523 18.625 65.1523C17.418 65.1523 16.457 64.4375 16.457 63.1953ZM17.4648 63.2422C17.4648 63.9102 18.0273 64.25 18.8008 64.25C19.9375 64.25 20.5703 63.4883 20.5703 62.6914V62.0469C20.2715 62.0703 19.2695 62.1465 18.9648 62.1641C18.0508 62.2227 17.4648 62.5508 17.4648 63.2422ZM23.1836 65V56.5156H24.1914V61.4492H24.3086L27.0625 58.6367H28.3047L25.6211 61.3555L28.5039 65H27.2266L24.8711 62L24.1914 62.6211V65H23.1836ZM29.0781 63.1953C29.0781 61.7305 30.3672 61.4023 31.4688 61.3203C31.873 61.291 32.9043 61.2383 33.1914 61.2266V60.7109C33.1914 59.9023 32.7109 59.4336 31.75 59.4336C30.9414 59.4336 30.4609 59.8086 30.3203 60.2891H29.2656C29.3945 59.2695 30.3906 58.5547 31.7969 58.5547C32.6289 58.5547 34.1875 58.8008 34.1875 60.8047V65H33.1914V64.1328H33.1445C32.9336 64.5664 32.3477 65.1523 31.2461 65.1523C30.0391 65.1523 29.0781 64.4375 29.0781 63.1953ZM30.0859 63.2422C30.0859 63.9102 30.6484 64.25 31.4219 64.25C32.5586 64.25 33.1914 63.4883 33.1914 62.6914V62.0469C32.8926 62.0703 31.8906 62.1465 31.5859 62.1641C30.6719 62.2227 30.0859 62.5508 30.0859 63.2422ZM38.4062 65.1289C36.6719 65.1289 35.5 63.8281 35.5 61.8477C35.5 59.8672 36.6719 58.5547 38.4062 58.5547C40.1289 58.5547 41.2891 59.8672 41.2891 61.8477C41.2891 63.8281 40.1289 65.1289 38.4062 65.1289ZM38.4062 64.2383C39.6836 64.2383 40.2812 63.1133 40.2812 61.8477C40.2812 60.582 39.6836 59.4453 38.4062 59.4453C37.1055 59.4453 36.5078 60.582 36.5078 61.8477C36.5078 63.1133 37.1055 64.2383 38.4062 64.2383Z" fill="black"/>
</svg>
