<svg width="132" height="44" viewBox="0 0 132 44" fill="none" xmlns="http://www.w3.org/2000/svg">
<path d="M51.791 12.1768C56.5762 12.1768 60.1406 14.5938 60.165 18.2559C60.1406 21.6006 57.3208 23.8589 53.3291 24.3105V28.0947H61.9961V30.6582H41.6592V28.0947H50.2285V24.2861C46.249 23.8589 43.4414 21.5884 43.4414 18.2559C43.4414 14.5938 47.0059 12.1768 51.791 12.1768ZM51.791 14.667C48.6904 14.667 46.5176 16.0342 46.5176 18.2559C46.5176 20.5996 48.6904 21.918 51.791 21.918C54.916 21.918 57.0645 20.5996 57.0889 18.2559C57.0645 16.0342 54.916 14.667 51.791 14.667ZM82.4844 15.5215V17.9873H67.0303V11.2979H70.1309V15.5215H82.4844ZM84.8281 19.4766V21.9424H64.4912V19.4766H84.8281ZM82.3867 23.2852V29.1934H69.9844V30.6094H83.0703V33.002H66.8594V26.9473H79.2861V25.6777H66.8105V23.2852H82.3867ZM107.709 28.0947V30.6582H87.3721V28.0947H95.9414V23.5537H89.5205V12.665H105.438V23.5537H99.042V28.0947H107.709ZM92.5967 15.1553V21.1123H102.362V15.1553H92.5967ZM129.32 11.0293V24.9697H126.366V19.0615H124.584V24.2373H121.679V11.4443H124.584V16.5225H126.366V11.0293H129.32ZM121.02 13.3242V15.7412H110.106V13.3242H114.037V11.2246H117.138V13.3242H121.02ZM115.6 16.4736C118.432 16.4736 120.434 18.0361 120.458 20.3555C120.434 22.6504 118.432 24.2129 115.6 24.2129C112.816 24.2129 110.79 22.6504 110.79 20.3555C110.79 18.0361 112.816 16.4736 115.6 16.4736ZM115.6 18.7197C114.379 18.7197 113.573 19.3301 113.573 20.3555C113.573 21.3809 114.379 22.0156 115.6 21.9912C116.82 22.0156 117.626 21.3809 117.65 20.3555C117.626 19.3301 116.82 18.7197 115.6 18.7197ZM121.728 25.165C126.537 25.165 129.418 26.6299 129.442 29.2178C129.418 31.7812 126.537 33.2461 121.728 33.2461C116.942 33.2461 114.037 31.7812 114.037 29.2178C114.037 26.6299 116.942 25.165 121.728 25.165ZM121.728 27.5088C118.725 27.5088 117.138 28.0459 117.162 29.2178C117.138 30.3408 118.725 30.9023 121.728 30.9023C124.755 30.9023 126.293 30.3408 126.293 29.2178C126.293 28.0459 124.755 27.5088 121.728 27.5088Z" fill="black"/>
<path d="M26.25 26.4138L9.75 35.9401C6.08333 38.057 1.5 35.4108 1.5 31.1769V12.1244C1.5 7.89045 6.08333 5.24426 9.75 7.36122L26.25 16.8875C29.9167 19.0044 29.9167 24.2968 26.25 26.4138Z" fill="#F68DB0" stroke="#F7BBCF" stroke-width="3"/>
</svg>
