<svg width="16" height="19" viewBox="0 0 16 19" fill="none" xmlns="http://www.w3.org/2000/svg">
<path d="M3.36723 7.43425V5.53381C3.36723 4.33137 3.85495 3.17818 4.72309 2.32792C5.59124 1.47767 6.7687 1 7.99644 1C9.22418 1 10.4016 1.47767 11.2698 2.32792C12.1379 3.17818 12.6256 4.33137 12.6256 5.53381V7.43425M1.84515 7.43425H14.1553C14.3794 7.43448 14.5943 7.52184 14.7526 7.67713C14.911 7.83241 15 8.04293 15 8.26243V17.1718C15 17.3914 14.911 17.602 14.7525 17.7573C14.594 17.9126 14.379 17.9999 14.1548 18H1.8456C1.62133 18 1.40625 17.9127 1.24767 17.7574C1.08909 17.6021 1 17.3915 1 17.1718V8.26243C1 8.04278 1.08909 7.83213 1.24767 7.67682C1.40625 7.52151 1.62089 7.43425 1.84515 7.43425Z" stroke="#7F7F7F" stroke-linecap="round" stroke-linejoin="round"/>
<path d="M8 15C9.10457 15 10 14.1046 10 13C10 11.8954 9.10457 11 8 11C6.89543 11 6 11.8954 6 13C6 14.1046 6.89543 15 8 15Z" stroke="#7F7F7F" stroke-linecap="round" stroke-linejoin="round"/>
</svg>
