<svg width="15" height="18" viewBox="0 0 15 18" fill="none" xmlns="http://www.w3.org/2000/svg">
<path d="M14.375 2.76923H11.25V2.07692C11.25 1.52609 11.0525 0.997815 10.7008 0.608317C10.3492 0.218818 9.87228 0 9.375 0H5.625C5.12772 0 4.65081 0.218818 4.29917 0.608317C3.94754 0.997815 3.75 1.52609 3.75 2.07692V2.76923H0.625C0.45924 2.76923 0.300269 2.84217 0.183058 2.972C0.0658481 3.10184 0 3.27793 0 3.46154C0 3.64515 0.0658481 3.82124 0.183058 3.95107C0.300269 4.08091 0.45924 4.15385 0.625 4.15385H1.25V16.6154C1.25 16.9826 1.3817 17.3348 1.61612 17.5945C1.85054 17.8541 2.16848 18 2.5 18H12.5C12.8315 18 13.1495 17.8541 13.3839 17.5945C13.6183 17.3348 13.75 16.9826 13.75 16.6154V4.15385H14.375C14.5408 4.15385 14.6997 4.08091 14.8169 3.95107C14.9342 3.82124 15 3.64515 15 3.46154C15 3.27793 14.9342 3.10184 14.8169 2.972C14.6997 2.84217 14.5408 2.76923 14.375 2.76923ZM5 2.07692C5 1.89331 5.06585 1.71722 5.18306 1.58739C5.30027 1.45755 5.45924 1.38462 5.625 1.38462H9.375C9.54076 1.38462 9.69973 1.45755 9.81694 1.58739C9.93415 1.71722 10 1.89331 10 2.07692V2.76923H5V2.07692ZM12.5 16.6154H2.5V4.15385H12.5V16.6154ZM6.25 7.61539V13.1538C6.25 13.3375 6.18415 13.5135 6.06694 13.6434C5.94973 13.7732 5.79076 13.8462 5.625 13.8462C5.45924 13.8462 5.30027 13.7732 5.18306 13.6434C5.06585 13.5135 5 13.3375 5 13.1538V7.61539C5 7.43177 5.06585 7.25568 5.18306 7.12585C5.30027 6.99602 5.45924 6.92308 5.625 6.92308C5.79076 6.92308 5.94973 6.99602 6.06694 7.12585C6.18415 7.25568 6.25 7.43177 6.25 7.61539ZM10 7.61539V13.1538C10 13.3375 9.93415 13.5135 9.81694 13.6434C9.69973 13.7732 9.54076 13.8462 9.375 13.8462C9.20924 13.8462 9.05027 13.7732 8.93306 13.6434C8.81585 13.5135 8.75 13.3375 8.75 13.1538V7.61539C8.75 7.43177 8.81585 7.25568 8.93306 7.12585C9.05027 6.99602 9.20924 6.92308 9.375 6.92308C9.54076 6.92308 9.69973 6.99602 9.81694 7.12585C9.93415 7.25568 10 7.43177 10 7.61539Z" fill="#F82121"/>
</svg>
