<svg width="18" height="16" viewBox="0 0 18 16" fill="none" xmlns="http://www.w3.org/2000/svg">
<path d="M9.10433 8.00829C11.4919 8.00829 13.4382 6.17707 13.4382 3.94812C13.4382 1.73649 11.512 0 9.10433 0C6.72657 0 4.77043 1.77114 4.77043 3.96544C4.78027 6.18555 6.72657 8.00829 9.10433 8.00829ZM9.10433 6.7038C7.63958 6.7038 6.38542 5.49478 6.38542 3.96508C6.38542 2.46228 7.61946 1.30449 9.10433 1.30449C10.6089 1.30449 11.8228 2.44495 11.8228 3.94812C11.8228 5.47709 10.5888 6.7038 9.10433 6.7038ZM2.80401 16H15.4046C17.0697 16 17.8624 15.5676 17.8624 14.6177C17.8624 12.3538 14.5516 9.07983 9.10433 9.07983C3.65667 9.07983 0.335938 12.3541 0.335938 14.6174C0.335938 15.5676 1.12867 16 2.80401 16ZM2.32247 14.6948C2.06136 14.6948 1.95136 14.6343 1.95136 14.453C1.95136 13.0361 4.49948 10.3836 9.1039 10.3836C13.7092 10.3836 16.247 13.0361 16.247 14.453C16.247 14.6343 16.1469 14.6948 15.8862 14.6948H2.32247Z" fill="#7F7F7F"/>
</svg>
